<svg width="128" height="128" viewBox="0 0 128 128" fill="none" xmlns="http://www.w3.org/2000/svg">
<rect width="128" height="128" fill="#1E1E1E"/>
<rect width="128" height="128" fill="white"/>
<path d="M112.606 85.9L110.878 86.9077L110.909 86.9595L110.942 87.0094L112.606 85.9ZM111.506 95.4L113.047 96.6751L113.048 96.6738L111.506 95.4ZM101.806 104.4L102.875 106.09L102.887 106.082L102.899 106.075L101.806 104.4ZM79.1059 104L77.878 105.579L77.8864 105.585L77.8948 105.592L79.1059 104ZM70.5059 92L72.3073 91.1311L72.3052 91.1268L70.5059 92ZM65.3059 82L63.5726 82.9979L63.5793 83.0095L63.5862 83.0211L65.3059 82ZM61.5059 77.3L60.278 78.8787L60.2985 78.8947L60.3195 78.9101L61.5059 77.3ZM57.0059 75.6L57.2267 73.6122L55.3875 73.4079L55.0412 75.2258L57.0059 75.6ZM54.7059 88.8L52.7345 88.4626L52.7327 88.4733L52.731 88.484L54.7059 88.8ZM53.7059 94.9L51.7381 94.5422L51.735 94.5593L51.7322 94.5764L53.7059 94.9ZM49.7059 104.3L51.1649 105.668L51.1754 105.657L51.1857 105.645L49.7059 104.3ZM28.7059 103.6L27.4716 105.174L27.4886 105.187L27.5059 105.2L28.7059 103.6ZM20.8059 92.6L18.9453 93.3337L18.9489 93.3428L20.8059 92.6ZM23.8059 47.5L22.0053 46.6292L21.9996 46.6413L23.8059 47.5ZM40.2059 28.9L41.2468 30.6078L41.2514 30.605L40.2059 28.9ZM90.3059 33.3L88.5968 34.3388L88.6042 34.351L88.6117 34.363L90.3059 33.3ZM90.8059 55.8L89.017 54.9056L89.0136 54.9123L89.0103 54.9191L90.8059 55.8ZM82.9059 65.2L84.1296 66.7819L84.1296 66.7819L82.9059 65.2ZM70.0059 71.3L69.4969 69.3658L62.2527 71.2722L69.483 73.2305L70.0059 71.3ZM77.4059 75.5L78.895 74.1649L78.895 74.1649L77.4059 75.5ZM82.6059 84L80.7918 84.8422L80.7935 84.8458L82.6059 84ZM88.1059 92.8L86.6662 94.1883L86.6788 94.2014L86.6917 94.2142L88.1059 92.8ZM100.606 93.5L101.779 95.1199L101.797 95.1068L101.815 95.0934L100.606 93.5ZM107.906 86.1L106.387 84.7984L106.379 84.8081L107.906 86.1ZM43.2059 75.5L45.1742 75.8543L45.598 73.5H43.2059V75.5ZM38.5059 73.9L36.9059 75.1L36.9292 75.1311L36.9536 75.1612L38.5059 73.9ZM38.8059 66.5L37.4889 64.9948L37.4647 65.016L37.4412 65.0379L38.8059 66.5ZM44.9059 65.1V67.1H46.6058L46.8797 65.4223L44.9059 65.1ZM47.9059 48.2L45.9447 47.8078L45.9436 47.8131L47.9059 48.2ZM61.9059 48.5L63.874 48.8557L63.8764 48.8423L63.8786 48.8288L61.9059 48.5ZM58.9059 65.1L56.9377 64.7443L56.4872 67.2375L59.0168 67.0969L58.9059 65.1ZM68.7059 62.5L67.7956 60.7191L67.7875 60.7233L67.7794 60.7275L68.7059 62.5ZM75.8059 56.1L74.1355 55L74.1261 55.0144L74.1168 55.0289L75.8059 56.1ZM74.2059 36.9L75.4897 35.3665L75.4897 35.3665L74.2059 36.9ZM44.4059 38.2L45.5047 39.8711L45.5101 39.8676L44.4059 38.2ZM33.0059 52.6L34.8422 53.3925L34.8451 53.3855L33.0059 52.6ZM30.2059 86.8L28.2812 87.3439L28.2812 87.3439L30.2059 86.8ZM33.4059 93.7L31.8639 94.9738L31.8639 94.9738L33.4059 93.7ZM39.1059 94.7L37.4615 93.5616L37.4308 93.6059L37.4025 93.6518L39.1059 94.7ZM40.5059 90.5L38.5375 90.1457L38.5362 90.1529L38.5349 90.1602L40.5059 90.5ZM110.606 86.7C110.668 86.7 110.701 86.707 110.714 86.7102C110.724 86.7131 110.727 86.7149 110.727 86.715C110.728 86.7154 110.74 86.7229 110.764 86.7482C110.789 86.7747 110.829 86.8238 110.878 86.9077L114.333 84.8923C113.538 83.5293 112.241 82.7 110.606 82.7V86.7ZM110.942 87.0094C111.177 87.3628 111.406 88.0239 111.406 89.2H115.406C115.406 87.5761 115.101 86.0372 114.27 84.7906L110.942 87.0094ZM111.406 89.2C111.406 91.4797 110.854 93.0489 109.964 94.1262L113.048 96.6738C114.691 94.6844 115.406 92.1203 115.406 89.2H111.406ZM109.965 94.1249C106.859 97.8786 103.77 100.728 100.712 102.725L102.899 106.075C106.375 103.805 109.753 100.655 113.047 96.6751L109.965 94.1249ZM100.737 102.71C97.8371 104.544 94.3541 105.5 90.2059 105.5V109.5C94.991 109.5 99.2413 108.389 102.875 106.09L100.737 102.71ZM90.2059 105.5C86.2528 105.5 82.9925 104.444 80.3169 102.408L77.8948 105.592C81.3526 108.223 85.4923 109.5 90.2059 109.5V105.5ZM80.3337 102.421C77.6865 100.362 74.9838 96.6801 72.3073 91.1311L68.7045 92.8689C71.4946 98.6532 74.5252 102.971 77.878 105.579L80.3337 102.421ZM72.3052 91.1268C70.1002 86.5832 68.337 83.1876 67.0256 80.9789L63.5862 83.0211C64.8081 85.079 66.5115 88.3501 68.7066 92.8732L72.3052 91.1268ZM67.0391 81.0021C65.7091 78.6921 64.2768 76.8574 62.6923 75.6899L60.3195 78.9101C61.2683 79.6093 62.3693 80.9079 63.5726 82.9979L67.0391 81.0021ZM62.7337 75.7213C61.1907 74.5212 59.3229 73.8451 57.2267 73.6122L56.785 77.5878C58.2888 77.7549 59.421 78.2122 60.278 78.8787L62.7337 75.7213ZM55.0412 75.2258C54.7701 76.649 53.9995 81.0727 52.7345 88.4626L56.6772 89.1374C57.9456 81.7273 58.7083 77.351 58.9705 75.9742L55.0412 75.2258ZM52.731 88.484C52.1961 91.8269 51.8667 93.8349 51.7381 94.5422L55.6736 95.2578C55.8117 94.4984 56.1489 92.4398 56.6807 89.116L52.731 88.484ZM51.7322 94.5764C51.1048 98.4038 49.884 101.131 48.226 102.955L51.1857 105.645C53.5277 103.069 54.9736 99.5295 55.6795 95.2235L51.7322 94.5764ZM48.2468 102.932C46.7538 104.525 44.3417 105.5 40.6059 105.5V109.5C45.0034 109.5 48.6579 108.342 51.1649 105.668L48.2468 102.932ZM40.6059 105.5C36.5576 105.5 33.0151 104.332 29.9059 102L27.5059 105.2C31.33 108.068 35.7208 109.5 40.6059 109.5V105.5ZM29.9401 102.026C26.8596 99.6102 24.4203 96.2509 22.6628 91.8572L18.9489 93.3428C20.9248 98.2825 23.7521 102.256 27.4716 105.174L29.9401 102.026ZM22.6664 91.8663C20.9068 87.4044 20.0059 82.293 20.0059 76.5H16.0059C16.0059 82.707 16.9716 88.3289 18.9453 93.3337L22.6664 91.8663ZM20.0059 76.5C20.0059 65.5265 21.9002 56.1666 25.6121 48.3587L21.9996 46.6413C17.9782 55.1001 16.0059 65.0735 16.0059 76.5H20.0059ZM25.6064 48.3707C29.39 40.547 34.6083 34.6541 41.2468 30.6078L39.1649 27.1922C31.8034 31.6793 26.0884 38.1863 22.0054 46.6293L25.6064 48.3707ZM41.2514 30.605C47.9696 26.4853 55.7331 24.4 64.6059 24.4V20.4C55.0786 20.4 46.5754 22.6481 39.1604 27.195L41.2514 30.605ZM64.6059 24.4C70.8176 24.4 75.8869 25.34 79.891 27.1265L81.5207 23.4735C76.8581 21.3933 71.1941 20.4 64.6059 20.4V24.4ZM79.891 27.1265C83.9261 28.9268 86.7793 31.3487 88.5968 34.3388L92.0149 32.2612C89.6991 28.4513 86.1523 25.5399 81.5207 23.4735L79.891 27.1265ZM88.6117 34.363C90.5325 37.4241 91.5059 40.8846 91.5059 44.8H95.5059C95.5059 40.182 94.3459 35.9759 92 32.237L88.6117 34.363ZM91.5059 44.8C91.5059 48.199 90.6892 51.5611 89.017 54.9056L92.5947 56.6944C94.5225 52.8389 95.5059 48.8677 95.5059 44.8H91.5059ZM89.0103 54.9191C87.4287 58.1432 85.0066 61.0463 81.6821 63.6181L84.1296 66.7819C87.8718 63.887 90.7164 60.5234 92.6014 56.6808L89.0103 54.9191ZM81.6821 63.6181C78.3944 66.1614 74.3483 68.0892 69.4969 69.3658L70.5149 73.2341C75.7967 71.8442 80.3506 69.7053 84.1296 66.7819L81.6821 63.6181ZM69.483 73.2305C72.4126 74.0239 74.5039 75.2593 75.9167 76.8351L78.895 74.1649C76.8411 71.8741 73.9992 70.3095 70.5287 69.3695L69.483 73.2305ZM75.9167 76.8351C77.4641 78.561 79.0992 81.1965 80.7918 84.8422L84.4199 83.1578C82.6459 79.3369 80.8143 76.3057 78.895 74.1649L75.9167 76.8351ZM80.7935 84.8458C82.6976 88.9261 84.6421 92.0893 86.6662 94.1883L89.5456 91.4117C87.9696 89.7774 86.2474 87.0739 84.4182 83.1542L80.7935 84.8458ZM86.6917 94.2142C88.8922 96.4148 91.5199 97.6 94.5059 97.6V93.6C92.6918 93.6 91.0529 92.9186 89.5201 91.3858L86.6917 94.2142ZM94.5059 97.6C97.11 97.6 99.5468 96.7362 101.779 95.1199L99.4328 91.8801C97.7983 93.0638 96.1684 93.6 94.5059 93.6V97.6ZM101.815 95.0934C103.925 93.4922 106.471 90.8916 109.433 87.3919L106.379 84.8081C103.474 88.2418 101.153 90.5745 99.3971 91.9066L101.815 95.0934ZM109.424 87.4016C109.939 86.8008 110.321 86.7 110.606 86.7V82.7C108.89 82.7 107.472 83.5325 106.387 84.7984L109.424 87.4016ZM43.2059 73.5C41.1575 73.5 40.3556 73.0049 40.0581 72.6388L36.9536 75.1612C38.3895 76.9284 40.7209 77.5 43.2059 77.5V73.5ZM40.1059 72.7C39.5655 71.9795 39.3059 71.2006 39.3059 70.3H35.3059C35.3059 72.0661 35.8462 73.6871 36.9059 75.1L40.1059 72.7ZM39.3059 70.3C39.3059 69.1517 39.6451 68.4524 40.1705 67.9621L37.4412 65.0379C35.9666 66.4142 35.3059 68.2483 35.3059 70.3H39.3059ZM40.1229 68.0052C40.8499 67.369 41.5892 67.1 42.4059 67.1V63.1C40.5559 63.1 38.8951 63.7644 37.4889 64.9948L40.1229 68.0052ZM42.4059 67.1H44.9059V63.1H42.4059V67.1ZM46.8797 65.4223C47.9441 58.9032 48.9402 53.2925 49.8681 48.5869L45.9436 47.8131C45.0048 52.5741 44.001 58.2301 42.932 64.7777L46.8797 65.4223ZM49.867 48.5922C50.2302 46.7766 50.9484 45.6275 51.8798 44.9067C52.8277 44.1733 54.2336 43.7 56.3059 43.7V39.7C53.6448 39.7 51.2841 40.31 49.4319 41.7433C47.5633 43.1892 46.4482 45.2901 45.9447 47.8078L49.867 48.5922ZM56.3059 43.7C57.949 43.7 58.8079 44.0724 59.2473 44.4655C59.6443 44.8207 60.0059 45.4694 60.0059 46.8H64.0059C64.0059 44.7306 63.4174 42.8293 61.9145 41.4845C60.4538 40.1776 58.4627 39.7 56.3059 39.7V43.7ZM60.0059 46.8C60.0059 47.4961 59.9727 47.9337 59.9331 48.1712L63.8786 48.8288C63.9724 48.2663 64.0059 47.5706 64.0059 46.8H60.0059ZM59.9377 48.1443L56.9377 64.7443L60.874 65.4557L63.874 48.8557L59.9377 48.1443ZM59.0168 67.0969C62.8758 66.8825 66.4244 65.9493 69.6324 64.2724L67.7794 60.7275C65.1206 62.1173 62.1359 62.9175 58.7949 63.1031L59.0168 67.0969ZM69.6161 64.2809C72.9208 62.5918 75.562 60.219 77.4949 57.1711L74.1168 55.0289C72.583 57.4476 70.4909 59.3416 67.7956 60.7191L69.6161 64.2809ZM77.4762 57.2C79.5043 54.1203 80.5059 50.6333 80.5059 46.8H76.5059C76.5059 49.9 75.7075 52.613 74.1355 55L77.4762 57.2ZM80.5059 46.8C80.5059 42.0902 78.8697 38.1962 75.4897 35.3665L72.922 38.4335C75.2753 40.4037 76.5059 43.1098 76.5059 46.8H80.5059ZM75.4897 35.3665C72.1253 32.5497 67.3904 31.3 61.6059 31.3V35.3C66.888 35.3 70.5531 36.4503 72.922 38.4335L75.4897 35.3665ZM61.6059 31.3C54.7223 31.3 48.5962 33.0266 43.3017 36.5324L45.5101 39.8676C50.0822 36.8401 55.4227 35.3 61.6059 35.3V31.3ZM43.307 36.5289C38.0524 39.984 34.0238 45.1245 31.1666 51.8145L34.8451 53.3855C37.4546 47.2755 41.026 42.816 45.5047 39.8711L43.307 36.5289ZM31.1696 51.8075C28.2993 58.458 26.9059 66.478 26.9059 75.8H30.9059C30.9059 66.8554 32.2457 59.4086 34.8421 53.3925L31.1696 51.8075ZM26.9059 75.8C26.9059 80.1926 27.3509 84.052 28.2812 87.3439L32.1305 86.2561C31.3275 83.4146 30.9059 79.9407 30.9059 75.8H26.9059ZM28.2812 87.3439C29.1832 90.5354 30.3457 93.1359 31.8639 94.9738L34.9478 92.4262C33.9327 91.1974 32.9619 89.1979 32.1305 86.2561L28.2812 87.3439ZM31.8639 94.9738C33.2375 96.6365 34.9502 98 37.0059 98V94C36.7949 94 36.1076 93.8302 34.9478 92.4262L31.8639 94.9738ZM37.0059 98C38.6982 98 39.9863 97.0853 40.8092 95.7482L37.4025 93.6518C37.2613 93.8814 37.1583 93.9558 37.1282 93.9745C37.1125 93.9841 37.1018 93.9883 37.0914 93.9911C37.0804 93.9942 37.0543 94 37.0059 94V98ZM40.7502 95.8384C41.6035 94.6059 42.1294 92.8546 42.4768 90.8398L38.5349 90.1602C38.2156 92.0121 37.8082 93.0608 37.4615 93.5616L40.7502 95.8384ZM42.4742 90.8543L45.1742 75.8543L41.2375 75.1457L38.5375 90.1457L42.4742 90.8543Z" fill="black"/>
</svg>
